<?xml version="1.0" encoding="utf-8"?>
<svg version="1.1" xmlns:xlink="http://www.w3.org/1999/xlink" width="12px" height="12px" viewBox="380 240.5  12 12" xmlns="http://www.w3.org/2000/svg">
  <path d="M 386 240.5  C 389.36 240.5  392 243.14  392 246.5  C 392 249.86  389.36 252.5  386 252.5  C 382.64 252.5  380 249.86  380 246.5  C 380 243.14  382.64 240.5  386 240.5  Z " fill-rule="nonzero" fill="#f0f0f0" stroke="none" />
  <path d="M 386 241  C 389.08 241  391.5 243.42  391.5 246.5  C 391.5 249.58  389.08 252  386 252  C 382.92 252  380.5 249.58  380.5 246.5  C 380.5 243.42  382.92 241  386 241  Z " stroke-width="1" stroke="#797979" fill="none" />
  <path d="M 386 249.5  C 384.32 249.5  383 248.18  383 246.5  C 383 244.82  384.32 243.5  386 243.5  C 387.68 243.5  389 244.82  389 246.5  C 389 248.18  387.68 249.5  386 249.5  " fill-rule="nonzero" fill="#797979" stroke="none" />
</svg>