<?xml version="1.0" encoding="utf-8"?>
<svg version="1.1" xmlns:xlink="http://www.w3.org/1999/xlink" width="50px" height="44px" xmlns="http://www.w3.org/2000/svg">
  <g transform="matrix(1 0 0 1 -1120 -120 )">
    <path d="M 18.6633663366337 37.7388392857143  L 38.2178217821782 20.9196428571429  C 39.2244224422442 26.7470238095238  41.6831683168317 31.297619047619  45.5940594059406 34.5714285714286  C 45.5940594059406 35.4226190476191  45.2805280528053 36.1592261904762  44.6534653465347 36.78125  C 44.026402640264 37.4032738095238  43.2838283828383 37.7142857142857  42.4257425742574 37  L 31.3366336633663 37  C 31.3366336633663 39.4494047619048  30.7178217821782 40.9308035714286  29.480198019802 42.1584821428571  C 28.2425742574257 43.3861607142857  26.7491749174918 44  25 44  C 23.2508250825083 44  21.7615511551155 43.3902529761905  20.5321782178218 42.1707589285714  C 19.3028052805281 40.9512648809524  18.6798679867987 39.4739583333333  18.6633663366337 37.7388392857143  Z M 21.9183168316832 40.7712053571429  C 22.7681518151815 41.6142113095238  23.7953795379538 42.0357142857143  25 42.0357142857143  C 25.2640264026403 42.0357142857143  25.3960396039604 41.9047619047619  25.3960396039604 41.6428571428571  C 25.3960396039604 41.3809523809524  25.2640264026403 41.25  25 41.25  C 24.026402640264 41.25  23.1889438943894 40.9021577380952  22.4876237623762 40.2064732142857  C 21.786303630363 39.5107886904762  21.4356435643564 38.6800595238095  21.4356435643564 37.7142857142857  C 21.4356435643564 37.4523809523809  21.3036303630363 37.3214285714286  21.039603960396 37.3214285714286  C 20.7755775577558 37.3214285714286  20.6435643564356 37.4523809523809  20.6435643564356 37.7142857142857  C 20.6435643564356 38.9092261904762  21.0684818481848 39.9281994047619  21.9183168316832 40.7712053571429  Z M 47.7227722772277 0.392857142857141  L 49.8019801980198 2.75  C 49.9339933993399 2.91369047619047  49.9958745874588 3.10602678571429  49.9876237623762 3.32700892857143  C 49.9793729372937 3.54799107142857  49.8927392739274 3.73214285714286  49.7277227722772 3.87946428571429  L 3.39108910891089 43.7053571428571  C 3.22607260726073 43.8363095238095  3.03217821782178 43.8936011904762  2.80940594059406 43.8772321428571  C 2.58663366336634 43.8608630952381  2.40924092409241 43.7708333333333  2.27722772277228 43.6071428571429  L 0.198019801980198 41.25  C 0.066006600660066 41.0863095238095  0.00412541254125415 40.8939732142857  0.0123762376237624 40.6729910714286  C 0.0206270627062707 40.4520089285714  0.107260726072607 40.2760416666667  0.272277227722772 40.1450892857143  L 4.87623762376238 36.1919642857143  C 4.56270627062706 35.6681547619048  4.40594059405941 35.1279761904762  4.40594059405941 34.5714285714286  C 5.23102310231023 33.8839285714286  5.98184818481848 33.1636904761905  6.65841584158416 32.4107142857143  C 7.33498349834984 31.6577380952381  8.03630363036304 30.6796875  8.76237623762376 29.4765625  C 9.48844884488449 28.2734375  10.1031353135314 26.9761904761905  10.6064356435644 25.5848214285714  C 11.1097359735974 24.1934523809524  11.5222772277228 22.5074404761905  11.8440594059406 20.5267857142857  C 12.1658415841584 18.546130952381  12.3267326732673 16.4181547619048  12.3267326732673 14.1428571428571  C 12.3267326732673 11.6547619047619  13.2920792079208 9.34263392857143  15.2227722772277 7.20647321428571  C 17.1534653465347 5.0703125  19.6864686468647 3.77306547619047  22.8217821782178 3.31473214285714  C 22.6897689768977 3.00372023809523  22.6237623762376 2.68452380952381  22.6237623762376 2.35714285714286  C 22.6237623762376 1.70238095238095  22.8547854785479 1.14583333333333  23.3168316831683 0.6875  C 23.7788778877888 0.229166666666668  24.3399339933993 0  25 0  C 25.6600660066007 0  26.2211221122112 0.229166666666668  26.6831683168317 0.6875  C 27.1452145214522 1.14583333333333  27.3762376237624 1.70238095238095  27.3762376237624 2.35714285714286  C 27.3762376237624 2.68452380952381  27.3102310231023 3.00372023809523  27.1782178217822 3.31473214285714  C 29.2244224422442 3.609375  31.0313531353135 4.28459821428571  32.5990099009901 5.34040178571429  C 34.1666666666667 6.39620535714286  35.3877887788779 7.68526785714286  36.2623762376238 9.20758928571429  L 46.6089108910891 0.294642857142859  C 46.7739273927393 0.163690476190473  46.9678217821782 0.10639880952381  47.1905940594059 0.122767857142859  C 47.4133663366337 0.139136904761902  47.5907590759076 0.229166666666663  47.7227722772277 0.392857142857141  Z " fill-rule="nonzero" fill="#000000" stroke="none" transform="matrix(1 0 0 1 1120 120 )" />
  </g>
</svg>