<?xml version="1.0" encoding="utf-8"?>
<svg version="1.1" xmlns:xlink="http://www.w3.org/1999/xlink" width="450px" height="450px" xmlns="http://www.w3.org/2000/svg">
  <g transform="matrix(1 0 0 1 -287 -80 )">
    <path d="M 512 80  C 638 80  737 179  737 305  C 737 431  638 530  512 530  C 386 530  287 431  287 305  C 287 179  386 80  512 80  Z " fill-rule="nonzero" fill="#ffffff" stroke="none" />
    <path d="M 512 80.5  C 637.72 80.5  736.5 179.28  736.5 305  C 736.5 430.72  637.72 529.5  512 529.5  C 386.28 529.5  287.5 430.72  287.5 305  C 287.5 179.28  386.28 80.5  512 80.5  Z " stroke-width="1" stroke="#797979" fill="none" />
  </g>
</svg>