<?xml version="1.0" encoding="utf-8"?>
<svg version="1.1" xmlns:xlink="http://www.w3.org/1999/xlink" width="12px" height="12px" viewBox="357 248.5  12 12" xmlns="http://www.w3.org/2000/svg">
  <path d="M 363 248.5  C 366.36 248.5  369 251.14  369 254.5  C 369 257.86  366.36 260.5  363 260.5  C 359.64 260.5  357 257.86  357 254.5  C 357 251.14  359.64 248.5  363 248.5  Z " fill-rule="nonzero" fill="#ffffff" stroke="none" />
  <path d="M 363 249  C 366.08 249  368.5 251.42  368.5 254.5  C 368.5 257.58  366.08 260  363 260  C 359.92 260  357.5 257.58  357.5 254.5  C 357.5 251.42  359.92 249  363 249  Z " stroke-width="1" stroke="#797979" fill="none" />
  <path d="M 363 257.5  C 361.32 257.5  360 256.18  360 254.5  C 360 252.82  361.32 251.5  363 251.5  C 364.68 251.5  366 252.82  366 254.5  C 366 256.18  364.68 257.5  363 257.5  " fill-rule="nonzero" fill="#797979" stroke="none" />
</svg>