<?xml version="1.0" encoding="utf-8"?>
<svg version="1.1" xmlns:xlink="http://www.w3.org/1999/xlink" width="12px" height="12px" viewBox="357 322.5  12 12" xmlns="http://www.w3.org/2000/svg">
  <path d="M 363 322.5  C 366.36 322.5  369 325.14  369 328.5  C 369 331.86  366.36 334.5  363 334.5  C 359.64 334.5  357 331.86  357 328.5  C 357 325.14  359.64 322.5  363 322.5  Z " fill-rule="nonzero" fill="#ffffff" stroke="none" />
  <path d="M 363 323  C 366.08 323  368.5 325.42  368.5 328.5  C 368.5 331.58  366.08 334  363 334  C 359.92 334  357.5 331.58  357.5 328.5  C 357.5 325.42  359.92 323  363 323  Z " stroke-width="1" stroke="#797979" fill="none" />
  <path d="M 363 331.5  C 361.32 331.5  360 330.18  360 328.5  C 360 326.82  361.32 325.5  363 325.5  C 364.68 325.5  366 326.82  366 328.5  C 366 330.18  364.68 331.5  363 331.5  " fill-rule="nonzero" fill="#797979" stroke="none" />
</svg>