<?xml version="1.0" encoding="utf-8"?>
<svg version="1.1" xmlns:xlink="http://www.w3.org/1999/xlink" width="12px" height="12px" viewBox="357 207.5  12 12" xmlns="http://www.w3.org/2000/svg">
  <path d="M 363 207.5  C 366.36 207.5  369 210.14  369 213.5  C 369 216.86  366.36 219.5  363 219.5  C 359.64 219.5  357 216.86  357 213.5  C 357 210.14  359.64 207.5  363 207.5  Z " fill-rule="nonzero" fill="#ffffff" stroke="none" />
  <path d="M 363 208  C 366.08 208  368.5 210.42  368.5 213.5  C 368.5 216.58  366.08 219  363 219  C 359.92 219  357.5 216.58  357.5 213.5  C 357.5 210.42  359.92 208  363 208  Z " stroke-width="1" stroke="#797979" fill="none" />
  <path d="M 363 216.5  C 361.32 216.5  360 215.18  360 213.5  C 360 211.82  361.32 210.5  363 210.5  C 364.68 210.5  366 211.82  366 213.5  C 366 215.18  364.68 216.5  363 216.5  " fill-rule="nonzero" fill="#797979" stroke="none" />
</svg>