<?xml version="1.0" encoding="utf-8"?>
<svg version="1.1" xmlns:xlink="http://www.w3.org/1999/xlink" width="100px" height="100px" xmlns="http://www.w3.org/2000/svg">
  <g transform="matrix(1 0 0 1 -467 -390 )">
    <path d="M 517 390  C 545 390  567 412  567 440  C 567 468  545 490  517 490  C 489 490  467 468  467 440  C 467 412  489 390  517 390  Z " fill-rule="nonzero" fill="#ff0000" stroke="none" />
    <path d="M 517 390.5  C 544.72 390.5  566.5 412.28  566.5 440  C 566.5 467.72  544.72 489.5  517 489.5  C 489.28 489.5  467.5 467.72  467.5 440  C 467.5 412.28  489.28 390.5  517 390.5  Z " stroke-width="1" stroke="#797979" fill="none" />
  </g>
</svg>